PathFileType	4	(X/Y/Z)	C:\Users\Basilio\Documents\Thesis Gigler\squatting_fais\c3dfiles\038\SJ_pre3\markers_experimental.trc
DataRate	CameraRate	NumFrames	NumMarkers	Units	OrigDataRate	OrigDataStartFrame	OrigNumFrames
200.000000	200.000000	4	61	mm	200.000000	772	2059
Frame#	Time	FHD			LBHD			RBHD			C7			T10			CLAV			LSHO			LUUPA			LMUPA			LDUPA			LLEP			LMEP			LRAD			LUL			LRFIN			RSHO			RUPA1			RMUPA			RDUPA			RLEP			RMEP			RRAD			RUL			RUFIN			LASI			RASI			USACR			LSACR			RSACR			LTHI1			LTHI2			LTHI3			LTHI4			LLFC			LMFC			LTIB1			LTIB2			LTIB3			LTIB4			LLMAL			LMMAL			LHEE			LMT1			LMT2			LMT5			RTHI			RTHI2			RTHI3			RTHI4			RLFC			RMFC			RTIB1			RTIB2			RTIB3			RTIB4			RLMAL			RMMAL			RHEE			RMT1			RMT2			RMT5			
		X1	Y1	Z1	X2	Y2	Z2	X3	Y3	Z3	X4	Y4	Z4	X5	Y5	Z5	X6	Y6	Z6	X7	Y7	Z7	X8	Y8	Z8	X9	Y9	Z9	X10	Y10	Z10	X11	Y11	Z11	X12	Y12	Z12	X13	Y13	Z13	X14	Y14	Z14	X15	Y15	Z15	X16	Y16	Z16	X17	Y17	Z17	X18	Y18	Z18	X19	Y19	Z19	X20	Y20	Z20	X21	Y21	Z21	X22	Y22	Z22	X23	Y23	Z23	X24	Y24	Z24	X25	Y25	Z25	X26	Y26	Z26	X27	Y27	Z27	X28	Y28	Z28	X29	Y29	Z29	X30	Y30	Z30	X31	Y31	Z31	X32	Y32	Z32	X33	Y33	Z33	X34	Y34	Z34	X35	Y35	Z35	X36	Y36	Z36	X37	Y37	Z37	X38	Y38	Z38	X39	Y39	Z39	X40	Y40	Z40	X41	Y41	Z41	X42	Y42	Z42	X43	Y43	Z43	X44	Y44	Z44	X45	Y45	Z45	X46	Y46	Z46	X47	Y47	Z47	X48	Y48	Z48	X49	Y49	Z49	X50	Y50	Z50	X51	Y51	Z51	X52	Y52	Z52	X53	Y53	Z53	X54	Y54	Z54	X55	Y55	Z55	X56	Y56	Z56	X57	Y57	Z57	X58	Y58	Z58	X59	Y59	Z59	X60	Y60	Z60	X61	Y61	Z61	

773	3.86	-171.9535217285157	1688.866943359375	-922.4230957031252	-335.3745422363282	1674.463989257813	-986.406433105469	-331.9259643554688	1661.384155273438	-841.1749267578127	-428.8990173339845	1513.917236328125	-915.4732055664065	-483.4971618652345	1231.04150390625	-915.1198730468752	-293.8679199218751	1463.100463867188	-926.6211547851565	-354.5961303710938	1515.088134765625	-1089.26171875	-416.5667114257814	1357.95263671875	-1263.536010742188	-375.1729431152344	1329.2041015625	-1256.835571289063	-405.0117797851564	1299.785888671875	-1300.763427734375	-394.0210266113282	1238.015502929688	-1320.82080078125	-469.9231262207032	1214.177001953125	-1297.820434570313	-380.8890075683594	1008.197204589844	-1137.780151367188	-337.1987304687501	976.3010253906252	-1187.98974609375	-355.3869018554688	966.9260864257815	-1080.76416015625	-334.4605712890626	1497.679931640625	-758.0896606445314	-350.6826782226563	1347.047119140625	-593.2517089843751	-331.7416076660157	1303.972412109375	-606.7199707031251	-353.5164794921876	1290.795043945313	-552.3773193359376	-350.7400207519532	1216.993408203125	-526.5762329101564	-433.827850341797	1205.97802734375	-528.8577270507814	-384.0653381347657	991.052673339844	-684.9479980468751	-330.9859924316407	960.3937988281252	-646.7716064453126	-349.3641967773438	965.6040649414065	-744.5640869140626	-358.9709777832032	1017.644836425781	-1030.516967773438	-358.8638000488282	1027.563110351563	-786.3401489257815	-521.0272216796876	1088.93603515625	-910.894226074219	-538.1038208007814	1060.121704101563	-937.7050781250002	-536.7127685546876	1061.8544921875	-881.1238403320315	-383.5605163574219	714.6838378906251	-1125.793701171875	-343.2848815917969	639.3626098632814	-1130.650390625	-297.0548400878907	649.3081665039064	-1112.991455078125	-363.3357849121094	585.5814819335939	-1115.695678710938	-353.9256591796876	528.2379150390626	-1114.146240234375	-322.9367370605469	509.3860473632814	-1002.403869628906	-325.5029296875001	333.4977722167969	-1065.535278320313	-385.6265258789064	302.8355407714844	-1124.46240234375	-347.6533813476563	292.3535766601563	-1102.2392578125	-362.8932800292969	211.1629791259766	-1077.018188476563	-464.4983520507814	85.76209259033205	-1090.24365234375	-412.0668029785157	96.91229248046878	-1027.06884765625	-499.8548583984376	44.17319488525391	-1032.080200195313	-292.2543029785157	48.23684310913087	-1081.682250976563	-301.7347717285157	50.32702636718751	-1131.564697265625	-352.4501647949219	29.95982551574708	-1167.90234375	-412.3624877929689	768.427673339844	-706.7231445312501	-372.2756652832032	716.6013183593751	-692.6538696289064	-339.0703430175782	721.5286865234376	-690.7297973632814	-390.8854064941407	633.6127319335939	-708.7255249023439	-362.2391967773438	504.0049743652345	-707.2710571289064	-339.1803588867188	500.4879150390626	-821.9739379882815	-329.4201049804688	324.5224914550782	-721.6109619140626	-420.3742065429689	254.6638641357422	-701.8538818359376	-372.7050781250001	252.161849975586	-702.6254272460939	-362.0299987792969	199.9156341552735	-728.6749877929689	-448.2813415527345	91.24375152587892	-716.7844238281251	-398.9085388183595	91.53366088867189	-784.7595214843752	-487.7020874023439	41.51542663574219	-791.567565917969	-286.0964660644532	48.0612144470215	-706.8314819335939	-304.2913818359376	53.80633926391603	-663.6930541992189	-360.5951843261719	35.62406158447266	-635.1348876953126	
774	3.865	-172.9764251708985	1690.081665039063	-922.8057861328127	-336.2992553710938	1674.146728515625	-986.6692504882815	-332.9352722167969	1661.269165039063	-841.4830322265627	-428.7860107421876	1513.575561523438	-915.6318969726565	-483.6286926269532	1230.833251953125	-915.1759033203127	-293.8187255859376	1462.812622070313	-926.8408203125002	-354.4448852539063	1514.712768554688	-1089.432495117188	-416.5116577148439	1357.66796875	-1263.80419921875	-374.8061523437501	1329.029541015625	-1257.392822265625	-404.7221679687501	1299.469482421875	-1301.089965820313	-393.7923889160157	1237.707763671875	-1321.09521484375	-469.246063232422	1213.312744140625	-1298.23681640625	-380.5258483886719	1008.171875	-1137.826904296875	-336.8330993652344	976.3112792968752	-1187.923828125	-355.2297058105469	966.9124755859377	-1080.669921875	-334.2210388183594	1497.332153320313	-758.2629394531251	-350.3941650390626	1346.819213867188	-593.3250122070314	-331.4179687500001	1303.699584960938	-606.9575195312501	-353.1885375976563	1290.540161132813	-552.4925537109376	-350.3644104003907	1216.935668945313	-526.6436157226564	-433.480194091797	1205.82568359375	-528.8460083007814	-383.8949890136719	990.7567138671877	-684.8821411132814	-330.7301940917969	960.215515136719	-646.7439575195314	-349.3085021972657	965.2908325195315	-744.5911254882814	-358.9977722167969	1017.319702148438	-1030.450805664063	-359.1155700683594	1027.39990234375	-786.321960449219	-521.2094116210939	1088.82763671875	-910.8877563476565	-538.3690185546876	1059.98193359375	-937.7178955078127	-536.9295654296876	1061.737548828125	-881.127624511719	-383.5154724121094	714.5969238281251	-1125.857543945313	-343.2251281738282	639.3299560546876	-1130.78759765625	-296.9426879882813	649.3009643554689	-1113.109008789063	-363.1257324218751	585.4699096679689	-1115.848876953125	-353.6382141113282	528.1744384765626	-1114.3505859375	-322.8036499023438	509.3807983398439	-1002.543212890625	-325.3332519531251	333.4631958007813	-1065.661865234375	-385.3589782714845	302.8031005859376	-1124.558715820313	-347.4728698730469	292.3589782714844	-1102.303588867188	-362.7945861816407	211.1110534667969	-1077.050048828125	-464.6268005371095	85.9868621826172	-1090.142700195313	-412.0057678222657	96.95278930664065	-1027.070068359375	-499.8564453125001	44.15369033813477	-1032.12744140625	-292.1166076660157	48.30015563964845	-1081.71923828125	-301.7810058593751	50.35087966918947	-1131.56787109375	-352.4604187011719	29.94335365295411	-1167.899536132813	-412.3952636718751	768.384460449219	-706.5913085937501	-372.3610534667969	716.4793090820314	-692.5314941406251	-339.2548522949219	721.4580688476564	-690.4644165039064	-390.8628845214845	633.5048217773439	-708.5796508789064	-362.0713500976563	503.9371337890626	-707.1030273437501	-338.9996948242188	500.4929809570314	-821.709899902344	-329.2859802246094	324.4340209960938	-721.4337158203126	-420.2735290527345	254.6179962158204	-701.7169799804689	-372.5832214355469	252.1290130615235	-702.5866699218751	-361.9872741699219	199.6584625244141	-728.7458496093751	-448.2777709960939	91.22959136962892	-716.7491455078126	-398.9771728515626	91.49806213378908	-784.7801513671877	-487.6762695312501	41.53633117675782	-791.5593872070315	-286.1063537597657	48.00590896606447	-706.8206787109376	-304.2759094238282	53.76715087890626	-663.6837158203126	-360.4403991699219	35.47593307495118	-635.1422119140626	
775	3.87	-174.2794189453125	1690.872436523438	-922.9156494140627	-337.2545471191407	1673.861572265625	-986.9400024414065	-333.7976074218751	1661.103271484375	-841.8721923828127	-428.7118225097657	1513.16552734375	-915.7613525390627	-483.6810913085939	1230.6591796875	-915.2521972656252	-293.7247924804688	1462.612548828125	-927.0148925781252	-354.2939147949219	1514.312377929688	-1089.64453125	-416.5156250000001	1357.411987304688	-1263.987060546875	-374.5128784179688	1328.730712890625	-1257.9404296875	-404.6190185546876	1299.214233398438	-1301.472412109375	-393.230194091797	1237.525390625	-1321.536743164063	-468.757781982422	1212.801513671875	-1298.6484375	-380.3476257324219	1008.184875488281	-1137.921264648438	-336.4660949707032	976.2702636718752	-1187.875366210938	-355.1506958007813	966.991394042969	-1080.668212890625	-334.0940856933594	1496.995361328125	-758.5000610351564	-350.0921630859376	1346.549438476563	-593.3549194335939	-331.1887512207032	1303.3642578125	-607.0350952148439	-352.7275695800782	1290.35546875	-552.4492187500001	-349.9531250000001	1216.767700195313	-526.7214355468751	-433.0859375000001	1205.659545898438	-528.8201293945314	-383.8732299804688	990.520446777344	-684.8409423828126	-330.5854492187501	960.007019042969	-646.8136596679689	-349.2597351074219	964.9502563476565	-744.6132202148439	-359.2509765625001	1016.935363769531	-1030.457153320313	-359.4433288574219	1027.146118164063	-786.1943359375002	-521.4658813476564	1088.677001953125	-910.8980712890627	-538.7001953125001	1059.857177734375	-937.7689208984377	-537.2765502929689	1061.622680664063	-881.1570434570315	-383.5518798828126	714.4976196289064	-1125.927368164063	-343.0612182617188	639.2521972656251	-1130.97119140625	-296.7276000976563	649.2438964843751	-1113.25634765625	-362.8973999023438	585.3255615234376	-1115.938598632813	-353.3964233398438	528.0639648437501	-1114.456420898438	-322.6477966308594	509.340545654297	-1002.691345214844	-325.1146545410157	333.4481811523438	-1065.771362304688	-385.3812866210939	302.7279357910157	-1124.598754882813	-347.6527404785157	291.7453613281251	-1102.581298828125	-362.6572265625001	211.0633392333985	-1077.071166992188	-464.5055236816407	85.71982574462892	-1090.306640625	-411.9912414550782	96.96661376953128	-1027.069458007813	-499.8695068359376	44.16635131835938	-1032.06689453125	-292.1636962890626	48.33786392211915	-1081.679565429688	-301.6974182128907	50.33139801025392	-1131.53759765625	-352.4457092285157	29.96864318847657	-1167.867553710938	-412.5747070312501	768.2280883789065	-706.4899291992189	-372.2051696777344	716.6840209960939	-692.2686157226564	-339.4423522949219	721.3932495117189	-690.2330932617189	-390.8519592285157	633.3566284179689	-708.3611450195314	-361.8280639648438	504.0603942871095	-706.8897094726564	-338.8664550781251	500.4653320312501	-821.4682617187502	-329.1445312500001	324.3439331054688	-721.3566894531251	-420.178436279297	254.5829010009766	-701.5809936523439	-372.4654235839844	252.1374969482422	-702.4207153320314	-361.7869567871094	199.5758666992188	-728.6688232421876	-448.2620239257814	91.18314361572267	-716.7353515625001	-398.9563598632814	91.51069641113283	-784.7906494140627	-488.2820434570314	41.3829574584961	-791.9102783203127	-286.0702209472657	48.04987716674806	-706.8090820312501	-304.3264160156251	53.78538513183595	-663.7031860351564	-360.5877075195313	35.58687210083009	-635.1533203125001	
776	3.875	-175.3208923339844	1691.849243164063	-923.2373046875002	-338.0844421386719	1673.798095703125	-987.1789550781252	-334.5383300781251	1660.723876953125	-842.0993652343752	-428.6176147460939	1512.739990234375	-915.9202880859377	-483.7730102539064	1230.501831054688	-915.3154907226565	-293.6752014160157	1462.273803710938	-927.0991821289065	-354.1331176757813	1513.881469726563	-1089.895874023438	-416.3425292968751	1357.080444335938	-1264.357055664063	-374.3750915527344	1328.44580078125	-1258.215087890625	-404.2640991210939	1298.932006835938	-1301.929931640625	-392.9521484375001	1237.296630859375	-1321.939575195313	-468.4448852539064	1212.491821289063	-1298.980590820313	-380.1622314453126	1008.153137207031	-1137.933227539063	-336.1231079101563	976.1497192382815	-1187.8779296875	-355.0435791015626	966.9768066406252	-1080.522094726563	-333.9378051757813	1496.748291015625	-758.6422119140626	-349.8036499023438	1346.287231445313	-593.4506225585939	-330.8753662109376	1303.167602539063	-607.0675048828126	-352.4005126953126	1290.140747070313	-552.5356445312501	-349.5723876953126	1216.455932617188	-526.7722778320314	-432.6629028320314	1205.44384765625	-528.8387451171876	-383.8839111328126	990.2297363281252	-684.7053222656251	-330.2432861328126	959.8652954101565	-646.7535400390626	-350.0140075683594	964.7180175781252	-744.8193359375001	-359.6554260253907	1016.620727539063	-1030.318237304688	-359.8720397949219	1026.893920898438	-786.028259277344	-521.7779541015626	1088.634643554688	-910.864196777344	-539.0397338867189	1059.7685546875	-937.7908935546877	-537.5375976562501	1061.447631835938	-881.1589965820315	-383.5242309570313	714.3419189453126	-1126.085327148438	-343.0232238769532	639.2030639648439	-1131.114013671875	-296.5704956054688	649.2023925781251	-1113.462036132813	-362.7376708984376	585.2258300781251	-1116.122680664063	-353.1523742675782	527.9174194335939	-1114.641845703125	-322.3986816406251	509.2783203125001	-1002.864074707031	-324.9925537109376	333.3734436035157	-1065.860473632813	-385.3239135742189	302.6517333984376	-1124.701782226563	-347.2983398437501	292.2320251464844	-1102.379028320313	-362.5616149902344	210.9928131103516	-1077.146728515625	-464.5466918945314	85.6867141723633	-1090.30810546875	-411.9534912109376	96.9693298339844	-1027.109497070313	-499.8857421875001	44.16794967651368	-1032.082763671875	-292.2062683105469	48.26978683471681	-1081.679321289063	-301.7651367187501	50.35694885253908	-1131.562133789063	-352.4668273925782	29.9592628479004	-1167.869506835938	-412.6975708007814	768.1331787109377	-706.3530273437501	-372.3036193847657	716.6093750000001	-692.1370849609376	-339.6217956542969	721.3858642578126	-690.0142822265626	-390.7938842773439	633.2640380859376	-708.1109619140626	-361.6291503906251	503.9341735839845	-706.6656494140626	-338.6526184082032	500.4635009765626	-821.2404785156252	-329.0166320800782	324.3046569824219	-721.1943969726564	-420.094451904297	254.5443725585938	-701.5056762695314	-372.3879089355469	252.0264434814454	-702.3395996093751	-361.7964477539063	199.5845336914063	-728.5673828125001	-448.2742309570314	91.16400146484376	-716.7131347656251	-398.9485778808595	91.54589080810548	-784.7430419921877	-487.6238098144532	41.55967330932618	-791.521911621094	-286.0984497070313	47.98767852783204	-706.8211059570314	-304.3367004394532	53.8184280395508	-663.7070922851564	-360.5920715332032	35.59431076049805	-635.1655883789064	
